<svg width="32" height="32" viewBox="0 0 32 32" fill="none" xmlns="http://www.w3.org/2000/svg">
<path fill-rule="evenodd" clip-rule="evenodd" d="M15.9948 7.82627C20.5177 7.82627 24.1853 11.4864 24.1853 16.0002C24.1853 16.3141 24.1675 16.624 24.1331 16.9288C26.4059 16.7216 28.9632 15.9252 31.9331 14.2536C31.0608 6.2396 24.2565 0 15.9948 0C7.51413 0 0.569055 6.57514 0 14.8952C5.2175 14.2089 9.9172 16.8282 14.007 19.7605C12.3589 17.7932 9.92719 16.1116 7.95113 14.4552C8.67527 10.6801 12.0014 7.82627 15.9948 7.82627ZM22.5519 30.6049C17.8592 30.6136 14.1825 28.4521 10.5679 26.3274C7.65922 24.6177 4.79483 22.9339 1.4222 22.6785C3.95819 28.1794 9.53059 32 15.9948 32C18.331 32.0004 20.5503 31.5019 22.5519 30.6049ZM29.8815 24.0008C24.9945 25.8003 21.1506 25.3204 17.7337 23.9899C15.6308 23.171 13.6895 22.03 11.766 20.899C10.64 20.2374 9.52103 19.5798 8.37683 19.0071C5.83346 17.7343 3.16455 16.8829 0.0186786 17.3441C0.100344 18.3252 0.271063 19.2811 0.522142 20.204C4.8361 20.1715 8.28171 22.1969 11.7855 24.2561C16.1764 26.8373 20.6693 29.4782 27.3268 27.3185C28.3159 26.3318 29.1764 25.2168 29.8815 24.0008ZM32 16.9479C29.0983 18.4318 26.5262 19.1519 24.1887 19.3422C23.9407 19.3626 23.6948 19.3769 23.4525 19.3851C22.9086 20.5773 22.0858 21.616 21.0676 22.4184C23.9611 22.9963 27.2551 22.7236 31.3067 20.7589C31.6851 19.5438 31.9227 18.2671 32 16.9479Z" fill="url(#paint0_linear_19_503)"/>
<defs>
<linearGradient id="paint0_linear_19_503" x1="16" y1="0" x2="16" y2="32" gradientUnits="userSpaceOnUse">
<stop offset="0.06" stop-color="#A4F4F8"/>
<stop offset="0.55" stop-color="#02BAD6"/>
<stop offset="0.99" stop-color="#0D78AA"/>
</linearGradient>
</defs>
</svg>
