<svg width="1955" height="494" viewBox="0 0 1955 494" fill="none" xmlns="http://www.w3.org/2000/svg">
<g clip-path="url(#clip0_14_9485)">
<path d="M1.79395 25.3775C1.79395 19.7973 3.68951 15.2634 7.48064 11.749C11.2718 8.26136 15.6762 6.49072 20.7496 6.49072C26.5478 6.49072 31.2867 8.26136 35.0221 11.749C38.8132 15.2634 40.7088 19.7973 40.7088 25.3775C40.7088 30.2602 38.8132 34.499 35.0221 38.1476C31.2867 41.7425 26.5478 43.5131 20.7496 43.5131C15.6762 43.5131 11.2718 41.7425 7.48064 38.1476C3.68951 34.499 1.79395 30.2602 1.79395 25.3775ZM35.3566 371.564C35.3566 375.642 33.9628 379.076 31.231 381.866C28.4712 384.602 25.0983 385.944 21.0841 385.944C17.3487 385.944 13.9757 384.602 10.9373 381.866C7.95453 379.076 6.47711 375.642 6.47711 371.564V103.071C6.47711 98.9931 7.92666 95.6396 10.8258 92.9836C13.7249 90.3545 17.1257 89.0131 21.0841 89.0131C25.3213 89.0131 28.7221 90.3545 31.3425 92.9836C34.0186 95.6396 35.3566 98.9931 35.3566 103.071V371.564Z" fill="url(#paint0_linear_14_9485)"/>
<path d="M489.971 371.885C489.971 375.963 488.578 379.344 485.846 381.973C483.086 384.629 479.825 385.943 476.033 385.943C472.075 385.943 468.591 384.629 465.552 381.973C462.569 379.344 461.092 375.963 461.092 371.885V183.232C460.869 173.225 458.416 163.916 453.733 155.331C449.105 146.693 443.14 139.208 435.781 132.903C428.477 126.625 420.114 121.689 410.692 118.094C401.326 114.446 391.653 112.621 381.701 112.621C371.053 112.621 360.906 114.66 351.261 118.738C341.671 122.762 333.197 128.128 325.838 134.835C318.534 141.569 312.792 149.402 308.555 158.336C304.373 167.296 302.31 176.659 302.31 186.451V371.885C302.31 375.963 300.861 379.344 297.962 381.973C295.118 384.629 291.829 385.943 288.038 385.943C284.247 385.943 280.846 384.629 277.891 381.973C274.908 379.344 273.431 375.963 273.431 371.885V183.232C273.208 173.225 270.866 163.916 266.406 155.331C262.002 146.693 256.148 139.208 248.789 132.903C241.485 126.625 233.122 121.689 223.7 118.094C214.334 114.446 204.549 112.621 194.375 112.621C183.726 112.621 173.691 114.553 164.269 118.416C154.902 122.226 146.54 127.43 139.18 134.084C131.877 140.683 126.079 148.329 121.786 157.048C117.465 165.794 115.207 174.942 114.984 184.52V371.885C114.984 375.963 113.59 379.344 110.858 381.973C108.099 384.629 104.837 385.943 101.046 385.943C97.0319 385.943 93.5195 384.629 90.5646 381.973C87.5819 379.344 86.1045 375.963 86.1045 371.885V185.164C86.1045 171.374 89.0593 158.39 95.0248 146.21C101.046 134.057 109.019 123.406 118.998 114.231C128.95 105.083 140.435 97.8928 153.453 92.6614C166.527 87.4568 180.158 84.8276 194.375 84.8276C204.326 84.8276 213.888 86.0617 223.031 88.4762C232.23 90.9176 240.816 94.432 248.789 98.9927C256.817 103.58 264.12 109.026 270.755 115.304C277.445 121.609 283.076 128.584 287.703 136.23C292.61 128.584 298.408 121.609 305.098 115.304C311.844 109.026 319.315 103.58 327.51 98.9927C335.762 94.432 344.515 90.9176 353.825 88.4762C363.108 86.0617 372.614 84.8276 382.37 84.8276C396.782 84.8276 410.358 87.4031 423.069 92.5541C435.781 97.6513 446.959 104.546 456.632 113.265C466.277 122.011 474.026 132.34 479.825 144.278C485.679 156.243 488.968 168.906 489.637 182.266C489.86 182.696 489.971 183.447 489.971 184.52V371.885Z" fill="url(#paint1_linear_14_9485)"/>
<path d="M537.395 237.639C537.395 216.552 541.52 196.646 549.771 177.974C558.078 159.302 569.452 143.098 583.892 129.362C598.304 115.626 615.141 104.788 634.403 96.8465C653.637 88.8518 674.126 84.8276 695.842 84.8276C717.752 84.8276 738.352 88.8518 757.615 96.8465C776.849 104.788 793.63 115.626 807.903 129.362C822.175 143.098 833.382 159.302 841.577 177.974C849.828 196.646 853.954 216.552 853.954 237.639C853.954 258.538 849.828 278.256 841.577 296.768C833.382 315.306 822.175 331.51 807.903 345.38C793.63 359.196 776.849 370.115 757.615 378.109C738.352 386.104 717.752 390.128 695.842 390.128C682.517 390.128 669.582 388.572 657.038 385.514C644.55 382.375 632.758 377.949 621.691 372.207C610.68 366.413 600.45 359.545 591.028 351.604C581.578 343.609 573.327 334.702 566.274 324.883V479.948C566.274 483.945 564.992 487.352 562.483 490.143C559.946 492.933 556.573 494.328 552.336 494.328C548.322 494.328 544.81 492.933 541.855 490.143C538.872 487.352 537.395 483.945 537.395 479.948V237.639ZM566.274 237.639C566.274 254.46 569.647 270.449 576.421 285.607C583.167 300.711 592.366 313.991 603.962 325.42C615.614 336.795 629.302 345.809 644.996 352.462C660.746 359.062 677.694 362.335 695.842 362.335C714.184 362.335 731.216 359.062 746.91 352.462C762.66 345.809 776.347 336.795 787.944 325.42C799.596 313.991 808.739 300.711 815.374 285.607C822.064 270.449 825.409 254.46 825.409 237.639C825.409 220.335 822.064 204.051 815.374 188.812C808.739 173.574 799.596 160.348 787.944 149.107C776.347 137.813 762.66 128.906 746.91 122.387C731.216 115.894 714.184 112.621 695.842 112.621C677.917 112.621 661.052 115.894 645.219 122.387C629.385 128.906 615.614 137.813 603.962 149.107C592.366 160.348 583.167 173.574 576.421 188.812C569.647 204.051 566.274 220.335 566.274 237.639Z" fill="url(#paint2_linear_14_9485)"/>
<path d="M1689.59 358.355C1693.97 358.355 1697.51 359.75 1700.18 362.54C1702.86 365.33 1704.2 368.657 1704.2 372.52C1704.2 376.544 1702.89 379.79 1700.29 382.285C1697.76 384.727 1694.41 386.041 1690.26 386.256C1674.93 386.256 1660.82 383.734 1647.89 378.637C1635.01 373.486 1623.91 366.242 1614.55 356.853C1605.24 347.409 1597.99 336.007 1592.81 322.62C1587.59 309.26 1585 294.451 1585 278.193V-12.513C1585 -16.8054 1586.37 -20.2662 1589.13 -22.9222C1591.86 -25.6318 1595.26 -27 1599.27 -27C1603.29 -27 1606.74 -25.6318 1609.64 -22.9222C1612.54 -20.2662 1613.99 -16.8054 1613.99 -12.513V279.481C1614.13 304.109 1620.96 323.425 1634.51 337.429C1648.11 351.38 1666.45 358.355 1689.59 358.355Z" fill="url(#paint3_linear_14_9485)"/>
<path d="M1831 241.138C1820.75 237.919 1810.54 234.243 1800.45 230.085C1790.33 225.873 1781.27 220.695 1773.25 214.525C1765.27 208.301 1758.86 200.95 1753.96 192.419C1749.11 183.834 1746.71 173.693 1746.71 161.942C1746.71 148.931 1749.55 137.636 1755.29 128.032C1761.09 118.374 1768.7 110.325 1778.15 103.887C1787.57 97.4481 1798.28 92.6996 1810.26 89.6144C1822.31 86.556 1834.52 85 1846.95 85C1866.49 85 1884.41 88.4876 1900.69 95.4092C1917.03 102.358 1929.57 113.411 1938.27 128.568C1939.75 131.573 1940.28 134.471 1939.83 137.261C1939.39 140.051 1938.3 142.277 1936.6 143.914C1933.92 146.489 1930.91 147.777 1927.57 147.777C1925.78 147.777 1923.78 147.241 1921.55 146.167C1911.79 133.585 1901.14 124.759 1889.54 119.662C1878 114.511 1864.37 111.935 1848.62 111.935C1840.15 111.935 1831.56 112.794 1822.86 114.511C1814.22 116.228 1806.42 119.018 1799.45 122.881C1792.45 126.69 1786.74 131.788 1782.28 138.226C1777.87 144.611 1775.7 152.499 1775.7 161.942C1775.7 170.259 1777.54 177.368 1781.27 183.297C1785.07 189.172 1790.14 194.243 1796.55 198.535C1803.02 202.774 1810.49 206.369 1818.96 209.374C1827.44 212.379 1836.19 215.169 1845.28 217.744C1859.91 221.983 1873.88 226.517 1887.2 231.373C1900.58 236.175 1912.32 241.943 1922.44 248.65C1932.53 255.384 1940.53 263.351 1946.41 272.58C1952.27 281.755 1955.22 292.835 1955.22 305.847C1955.22 318.027 1952.43 329.294 1946.86 339.65C1941.34 350.032 1933.76 359.019 1924.11 366.585C1914.44 374.177 1903.15 380.187 1890.21 384.613C1877.33 388.959 1863.59 391.159 1848.96 391.159C1837.42 391.159 1826.15 390.086 1815.17 387.94C1804.16 385.794 1793.93 382.547 1784.51 378.175C1775.06 373.828 1766.67 368.302 1759.31 361.649C1752 354.995 1746.04 347.215 1741.36 338.255C1738.46 332.675 1738.23 328.006 1740.69 324.197C1743.14 320.334 1746.82 318.402 1751.73 318.402C1756.77 318.402 1761.43 320.414 1765.66 324.412C1773.25 337.289 1784.17 347.162 1798.45 354.029C1812.77 360.844 1829.72 364.224 1849.29 364.224C1859.24 364.224 1868.83 362.802 1878.06 359.932C1887.26 357.007 1895.48 353.01 1902.7 347.913C1909.89 342.762 1915.64 336.618 1919.87 329.455C1924.11 322.319 1926.23 314.432 1926.23 305.847C1926.23 297.128 1923.61 289.509 1918.42 282.989C1913.21 276.417 1906.21 270.595 1897.46 265.498C1888.68 260.347 1878.56 255.84 1867.13 251.976C1855.67 248.113 1843.63 244.518 1831 241.138Z" fill="url(#paint4_linear_14_9485)"/>
<path fill-rule="evenodd" clip-rule="evenodd" d="M1045.45 161.306C1089.41 161.306 1125.05 196.993 1125.05 241.002C1125.05 244.062 1124.88 247.084 1124.54 250.056C1146.63 248.035 1171.49 240.271 1200.35 223.972C1191.87 145.836 1125.74 85 1045.45 85C963.028 85 895.531 149.108 890 230.228C940.708 223.537 986.383 249.075 1026.13 277.665C1010.11 258.484 986.48 242.088 967.275 225.938C974.313 189.131 1006.64 161.306 1045.45 161.306ZM1109.18 383.398C1063.57 383.483 1027.84 362.408 992.707 341.693C964.438 325.022 936.6 308.605 903.822 306.116C928.469 359.749 982.625 397 1045.45 397C1068.15 397.004 1089.72 392.143 1109.18 383.398ZM1180.41 319.007C1132.92 336.553 1095.56 331.874 1062.35 318.902C1041.91 310.917 1023.04 299.792 1004.35 288.765C993.408 282.315 982.532 275.903 971.412 270.319C946.694 257.909 920.756 249.608 890.182 254.105C890.975 263.67 892.634 272.99 895.075 281.989C937.001 281.672 970.488 301.42 1004.54 321.497C1047.21 346.663 1090.88 372.413 1155.58 351.355C1165.2 341.735 1173.56 330.864 1180.41 319.007ZM1201 250.242C1172.8 264.71 1147.8 271.731 1125.08 273.586C1122.67 273.785 1120.28 273.925 1117.93 274.005C1112.64 285.628 1104.65 295.756 1094.75 303.58C1122.87 309.214 1154.89 306.555 1194.26 287.4C1197.94 275.552 1200.25 263.104 1201 250.242Z" fill="url(#paint5_linear_14_9485)"/>
<path fill-rule="evenodd" clip-rule="evenodd" d="M1394.55 161.306C1350.59 161.306 1314.95 196.993 1314.95 241.002C1314.95 244.062 1315.12 247.084 1315.46 250.056C1293.37 248.035 1268.51 240.271 1239.65 223.972C1248.13 145.836 1314.26 85 1394.55 85C1476.97 85 1544.47 149.108 1550 230.228C1499.29 223.537 1453.62 249.075 1413.87 277.665C1429.89 258.484 1453.52 242.088 1472.72 225.938C1465.69 189.131 1433.36 161.306 1394.55 161.306ZM1330.82 383.398C1376.43 383.483 1412.16 362.408 1447.29 341.693C1475.56 325.022 1503.4 308.605 1536.18 306.116C1511.53 359.749 1457.37 397 1394.55 397C1371.85 397.004 1350.28 392.144 1330.82 383.398ZM1259.59 319.007C1307.08 336.553 1344.44 331.874 1377.65 318.902C1398.09 310.917 1416.96 299.792 1435.65 288.765C1446.59 282.315 1457.47 275.903 1468.59 270.319C1493.31 257.909 1519.24 249.608 1549.82 254.105C1549.02 263.67 1547.37 272.99 1544.93 281.989C1503 281.672 1469.51 301.42 1435.46 321.497C1392.79 346.663 1349.12 372.413 1284.42 351.355C1274.8 341.735 1266.44 330.864 1259.59 319.007ZM1239 250.242C1267.2 264.71 1292.2 271.731 1314.92 273.586C1317.33 273.785 1319.72 273.925 1322.07 274.005C1327.36 285.629 1335.35 295.756 1345.25 303.58C1317.13 309.214 1285.11 306.555 1245.74 287.4C1242.06 275.552 1239.75 263.104 1239 250.242Z" fill="url(#paint6_linear_14_9485)"/>
</g>
<defs>
<linearGradient id="paint0_linear_14_9485" x1="21.2514" y1="6.49072" x2="21.2514" y2="385.944" gradientUnits="userSpaceOnUse">
<stop offset="0.18" stop-color="#A4F4F8"/>
<stop offset="0.59" stop-color="#02BAD6"/>
<stop offset="0.9" stop-color="#0D78AA"/>
</linearGradient>
<linearGradient id="paint1_linear_14_9485" x1="288.038" y1="84.8276" x2="288.038" y2="385.943" gradientUnits="userSpaceOnUse">
<stop offset="0.0101" stop-color="#A4F4F8"/>
<stop offset="0.405" stop-color="#02BAD6"/>
<stop offset="1" stop-color="#0D78AA"/>
</linearGradient>
<linearGradient id="paint2_linear_14_9485" x1="695.674" y1="84.8276" x2="695.674" y2="494.328" gradientUnits="userSpaceOnUse">
<stop offset="0.0101" stop-color="#A4F4F8"/>
<stop offset="0.405" stop-color="#02BAD6"/>
<stop offset="0.795" stop-color="#0D78AA"/>
</linearGradient>
<linearGradient id="paint3_linear_14_9485" x1="1644.6" y1="-27" x2="1644.6" y2="386.256" gradientUnits="userSpaceOnUse">
<stop offset="0.138552" stop-color="#A4F4F8"/>
<stop offset="0.58" stop-color="#02BAD6"/>
<stop offset="1" stop-color="#0D78AA"/>
</linearGradient>
<linearGradient id="paint4_linear_14_9485" x1="1847.11" y1="85" x2="1847.11" y2="391.159" gradientUnits="userSpaceOnUse">
<stop offset="0.0101" stop-color="#A4F4F8"/>
<stop offset="0.405" stop-color="#02BAD6"/>
<stop offset="1" stop-color="#0D78AA"/>
</linearGradient>
<linearGradient id="paint5_linear_14_9485" x1="1045.5" y1="85" x2="1045.5" y2="397" gradientUnits="userSpaceOnUse">
<stop offset="0.06" stop-color="#A4F4F8"/>
<stop offset="0.55" stop-color="#02BAD6"/>
<stop offset="0.99" stop-color="#0D78AA"/>
</linearGradient>
<linearGradient id="paint6_linear_14_9485" x1="1393.5" y1="85" x2="1393.5" y2="397" gradientUnits="userSpaceOnUse">
<stop offset="0.06" stop-color="#A4F4F8"/>
<stop offset="0.55" stop-color="#02BAD6"/>
<stop offset="0.99" stop-color="#0D78AA"/>
</linearGradient>
<clipPath id="clip0_14_9485">
<rect width="1955" height="494" fill="white"/>
</clipPath>
</defs>
</svg>
