<svg xmlns="http://www.w3.org/2000/svg" xmlns:xlink="http://www.w3.org/1999/xlink" width="308" zoomAndPan="magnify" viewBox="0 0 230.87999 230.249992" height="307" preserveAspectRatio="xMidYMid meet" version="1.0"><defs><g/></defs><path fill="#02bad6" d="M 6.074219 55.984375 L 70.050781 119.960938 L 19.257812 170.757812 C 17.589844 172.421875 16.351562 174.464844 15.640625 176.710938 L 3.773438 214.191406 C 1.378906 221.753906 8.503906 228.875 16.066406 226.480469 L 53.546875 214.617188 C 55.792969 213.90625 57.832031 212.664062 59.5 211 L 110.296875 160.203125 L 173.09375 223 C 178.828125 228.738281 188.128906 228.738281 193.867188 223 L 222.691406 194.175781 C 228.425781 188.441406 228.425781 179.140625 222.691406 173.402344 L 159.894531 110.605469 L 218.890625 51.609375 C 230.003906 40.496094 230.003906 22.480469 218.890625 11.367188 C 207.777344 0.253906 189.757812 0.253906 178.644531 11.367188 L 119.648438 70.363281 L 55.671875 6.386719 C 49.9375 0.648438 40.636719 0.648438 34.898438 6.386719 L 6.074219 35.210938 C 0.339844 40.945312 0.339844 50.246094 6.074219 55.984375 Z M 13 42.132812 C 11.085938 44.046875 11.085938 47.148438 13 49.058594 L 76.976562 113.035156 L 112.726562 77.285156 L 95.390625 59.953125 L 81.324219 74.019531 C 79.414062 75.933594 76.3125 75.933594 74.398438 74.019531 C 72.488281 72.109375 72.488281 69.007812 74.398438 67.097656 L 88.46875 53.027344 L 69.6875 34.246094 L 54.394531 49.539062 C 52.480469 51.453125 49.382812 51.453125 47.46875 49.539062 C 45.558594 47.628906 45.558594 44.527344 47.46875 42.613281 L 62.761719 27.324219 L 48.75 13.308594 C 46.835938 11.398438 43.738281 11.398438 41.824219 13.308594 Z M 180.019531 216.078125 L 117.21875 153.277344 L 152.96875 117.53125 L 170.484375 135.042969 L 155.191406 150.335938 C 153.277344 152.25 153.277344 155.347656 155.191406 157.261719 C 157.101562 159.171875 160.203125 159.171875 162.117188 157.261719 L 177.40625 141.96875 L 196.1875 160.75 L 182.121094 174.816406 C 180.210938 176.730469 180.210938 179.832031 182.121094 181.742188 C 184.035156 183.65625 187.132812 183.65625 189.046875 181.742188 L 203.113281 167.675781 L 215.765625 180.328125 C 217.679688 182.238281 217.679688 185.339844 215.765625 187.253906 L 186.941406 216.078125 C 185.03125 217.988281 181.929688 217.988281 180.019531 216.078125 Z M 36.046875 167.816406 L 166.5 37.363281 L 192.894531 63.753906 L 62.441406 194.207031 Z M 29.121094 174.738281 L 26.179688 177.679688 C 25.625 178.238281 25.210938 178.917969 24.976562 179.664062 L 13.109375 217.144531 L 50.589844 205.28125 C 51.339844 205.042969 52.019531 204.628906 52.574219 204.074219 L 55.515625 201.132812 Z M 199.816406 56.832031 L 173.425781 30.4375 L 185.570312 18.292969 C 192.859375 11.003906 204.675781 11.003906 211.964844 18.292969 C 219.253906 25.578125 219.253906 37.398438 211.964844 44.683594 Z M 199.816406 56.832031 " fill-opacity="1" fill-rule="evenodd"/><g fill="#02bad6" fill-opacity="1"><g transform="translate(106.626025, 153.711297)"><g><path d="M 2.9375 -1.984375 C 2.9375 -2.640625 3.128906 -3.179688 3.515625 -3.609375 C 3.910156 -4.046875 4.492188 -4.265625 5.265625 -4.265625 C 6.046875 -4.265625 6.632812 -4.046875 7.03125 -3.609375 C 7.4375 -3.179688 7.640625 -2.640625 7.640625 -1.984375 C 7.640625 -1.359375 7.4375 -0.832031 7.03125 -0.40625 C 6.632812 0.0078125 6.046875 0.21875 5.265625 0.21875 C 4.492188 0.21875 3.910156 0.0078125 3.515625 -0.40625 C 3.128906 -0.832031 2.9375 -1.359375 2.9375 -1.984375 Z M 2.9375 -1.984375 "/></g></g></g></svg>