<svg xmlns="http://www.w3.org/2000/svg" xmlns:xlink="http://www.w3.org/1999/xlink" width="118" zoomAndPan="magnify" viewBox="0 0 88.5 86.249997" height="115" preserveAspectRatio="xMidYMid meet" version="1.0"><defs><clipPath id="ad6307573a"><path d="M 0.132812 34.523438 L 87.871094 34.523438 L 87.871094 85 L 0.132812 85 Z M 0.132812 34.523438 " clip-rule="nonzero"/></clipPath><clipPath id="93cd7fa928"><path d="M 0.132812 18 L 5 18 L 5 21 L 0.132812 21 Z M 0.132812 18 " clip-rule="nonzero"/></clipPath><clipPath id="84bef1613d"><path d="M 18 33 L 21 33 L 21 38.664062 L 18 38.664062 Z M 18 33 " clip-rule="nonzero"/></clipPath><clipPath id="1a41979219"><path d="M 34 18 L 38.796875 18 L 38.796875 21 L 34 21 Z M 34 18 " clip-rule="nonzero"/></clipPath></defs><g clip-path="url(#ad6307573a)"><path fill="#ffffff" d="M 79.082031 60.644531 C 74.421875 59.015625 67.984375 57.824219 59.992188 57.121094 L 59.992188 40.027344 C 59.992188 38.925781 60.902344 37.996094 62.023438 37.996094 C 63.148438 37.996094 64.042969 38.925781 64.042969 40.027344 L 64.042969 43.640625 C 64.042969 44.605469 64.8125 45.375 65.777344 45.375 C 66.742188 45.375 67.511719 44.605469 67.511719 43.640625 L 67.511719 40.027344 C 67.53125 36.996094 65.058594 34.523438 62.023438 34.523438 C 58.992188 34.523438 56.519531 36.996094 56.519531 40.027344 L 56.519531 45.289062 L 47.210938 45.289062 L 47.210938 40.027344 C 47.210938 38.925781 48.121094 37.996094 49.246094 37.996094 C 50.367188 37.996094 51.277344 38.90625 51.277344 40.027344 L 51.277344 41.957031 C 51.277344 42.921875 52.050781 43.691406 53.011719 43.691406 C 53.976562 43.691406 54.75 42.921875 54.75 41.957031 L 54.75 40.027344 C 54.75 36.996094 52.277344 34.523438 49.246094 34.523438 C 46.210938 34.523438 43.738281 36.996094 43.738281 40.027344 L 43.738281 67.625 C 43.722656 68.585938 44.492188 69.359375 45.476562 69.359375 C 46.4375 69.359375 47.210938 68.585938 47.210938 67.625 L 47.210938 65.695312 L 56.519531 65.695312 L 56.519531 69.308594 C 56.519531 70.269531 57.292969 71.042969 58.253906 71.042969 C 59.21875 71.042969 59.992188 70.269531 59.992188 69.308594 L 59.992188 60.609375 C 67.476562 61.292969 73.667969 62.433594 77.945312 63.941406 C 82.011719 65.363281 84.359375 67.132812 84.359375 68.78125 C 84.359375 69.480469 84.359375 70.9375 79.75 71.917969 C 76.066406 72.707031 70.511719 72.9375 64.078125 73.214844 C 62.585938 73.285156 61.027344 73.339844 59.414062 73.425781 C 55.574219 73.601562 52.050781 75.265625 49.472656 78.089844 C 47.578125 80.175781 44.878906 81.367188 42.054688 81.367188 L 42.003906 81.367188 C 30.203125 81.367188 20.210938 80.140625 13.09375 77.792969 C 7.097656 75.828125 3.660156 73.199219 3.660156 70.605469 C 3.660156 66.011719 14.566406 60.875 35.429688 59.996094 C 36.394531 59.960938 37.128906 59.136719 37.09375 58.191406 C 37.058594 57.226562 36.234375 56.472656 35.289062 56.527344 C 13.601562 57.4375 0.15625 62.835938 0.15625 70.605469 C 0.15625 73.621094 2.207031 77.878906 11.988281 81.089844 C 19.457031 83.542969 29.820312 84.839844 41.984375 84.839844 L 42.039062 84.839844 C 45.824219 84.839844 49.472656 83.226562 52.03125 80.421875 C 53.976562 78.28125 56.660156 77.019531 59.554688 76.898438 C 61.164062 76.828125 62.707031 76.757812 64.199219 76.6875 C 71.070312 76.390625 76.488281 76.160156 80.449219 75.320312 C 82.273438 74.933594 87.8125 73.742188 87.8125 68.78125 C 87.8125 65.398438 84.867188 62.664062 79.082031 60.644531 Z M 56.503906 62.207031 L 47.191406 62.207031 L 47.191406 57.226562 L 56.503906 57.226562 Z M 56.503906 53.757812 L 47.191406 53.757812 L 47.191406 48.777344 L 56.503906 48.777344 Z M 56.503906 53.757812 " fill-opacity="1" fill-rule="nonzero"/></g><path fill="#ffffff" d="M 19.539062 7.277344 C 12.851562 7.277344 7.410156 12.71875 7.410156 19.402344 C 7.410156 26.089844 12.851562 31.539062 19.539062 31.539062 C 26.222656 31.539062 31.671875 26.089844 31.671875 19.402344 C 31.671875 12.71875 26.222656 7.277344 19.539062 7.277344 Z M 19.539062 29.109375 C 14.1875 29.109375 9.832031 24.753906 9.832031 19.402344 C 9.832031 14.054688 14.1875 9.699219 19.539062 9.699219 C 24.886719 9.699219 29.242188 14.054688 29.242188 19.402344 C 29.242188 24.753906 24.886719 29.109375 19.539062 29.109375 Z M 19.539062 29.109375 " fill-opacity="1" fill-rule="nonzero"/><path fill="#ffffff" d="M 19.539062 4.847656 C 20.207031 4.847656 20.75 4.304688 20.75 3.636719 L 20.75 1.214844 C 20.75 0.546875 20.210938 0 19.539062 0 C 18.863281 0 18.324219 0.546875 18.324219 1.214844 L 18.324219 3.640625 C 18.324219 4.308594 18.871094 4.847656 19.539062 4.847656 Z M 19.539062 4.847656 " fill-opacity="1" fill-rule="nonzero"/><path fill="#ffffff" d="M 10.601562 6.359375 C 10.828125 6.75 11.234375 6.960938 11.65625 6.960938 C 11.863281 6.960938 12.074219 6.910156 12.261719 6.800781 C 12.839844 6.46875 13.039062 5.722656 12.703125 5.144531 L 11.488281 3.042969 C 11.15625 2.464844 10.410156 2.265625 9.832031 2.601562 C 9.253906 2.933594 9.054688 3.679688 9.390625 4.257812 Z M 10.601562 6.359375 " fill-opacity="1" fill-rule="nonzero"/><path fill="#ffffff" d="M 6.492188 10.46875 L 4.390625 9.253906 C 3.8125 8.921875 3.070312 9.121094 2.734375 9.699219 C 2.402344 10.277344 2.601562 11.023438 3.179688 11.355469 L 5.277344 12.570312 C 5.472656 12.679688 5.675781 12.730469 5.882812 12.730469 C 6.300781 12.730469 6.710938 12.511719 6.9375 12.125 C 7.269531 11.546875 7.070312 10.804688 6.492188 10.46875 Z M 6.492188 10.46875 " fill-opacity="1" fill-rule="nonzero"/><g clip-path="url(#93cd7fa928)"><path fill="#ffffff" d="M 4.984375 19.402344 C 4.984375 18.734375 4.4375 18.191406 3.769531 18.191406 L 1.347656 18.191406 C 0.679688 18.191406 0.132812 18.734375 0.132812 19.402344 C 0.132812 20.070312 0.679688 20.617188 1.347656 20.617188 L 3.777344 20.617188 C 4.445312 20.617188 4.984375 20.078125 4.984375 19.402344 Z M 4.984375 19.402344 " fill-opacity="1" fill-rule="nonzero"/></g><path fill="#ffffff" d="M 5.277344 26.238281 L 3.179688 27.453125 C 2.601562 27.785156 2.402344 28.53125 2.734375 29.109375 C 2.960938 29.5 3.363281 29.714844 3.789062 29.714844 C 3.992188 29.714844 4.207031 29.660156 4.390625 29.550781 L 6.492188 28.339844 C 7.070312 28.003906 7.269531 27.257812 6.9375 26.679688 C 6.601562 26.101562 5.855469 25.90625 5.277344 26.238281 Z M 5.277344 26.238281 " fill-opacity="1" fill-rule="nonzero"/><path fill="#ffffff" d="M 12.261719 32.011719 C 11.683594 31.679688 10.9375 31.878906 10.601562 32.457031 L 9.394531 34.554688 C 9.0625 35.132812 9.261719 35.878906 9.839844 36.214844 C 10.03125 36.324219 10.238281 36.375 10.441406 36.375 C 10.859375 36.375 11.269531 36.15625 11.496094 35.769531 L 12.710938 33.667969 C 13.042969 33.085938 12.84375 32.347656 12.261719 32.011719 Z M 12.261719 32.011719 " fill-opacity="1" fill-rule="nonzero"/><g clip-path="url(#84bef1613d)"><path fill="#ffffff" d="M 19.539062 33.957031 C 18.871094 33.957031 18.324219 34.503906 18.324219 35.171875 L 18.324219 37.601562 C 18.324219 38.269531 18.871094 38.816406 19.539062 38.816406 C 20.207031 38.816406 20.75 38.269531 20.75 37.601562 L 20.75 35.171875 C 20.75 34.503906 20.210938 33.957031 19.539062 33.957031 Z M 19.539062 33.957031 " fill-opacity="1" fill-rule="nonzero"/></g><path fill="#ffffff" d="M 28.472656 32.457031 C 28.136719 31.878906 27.394531 31.679688 26.816406 32.011719 C 26.238281 32.347656 26.039062 33.09375 26.371094 33.667969 L 27.585938 35.769531 C 27.8125 36.160156 28.214844 36.375 28.640625 36.375 C 28.84375 36.375 29.058594 36.324219 29.242188 36.214844 C 29.820312 35.878906 30.019531 35.132812 29.6875 34.554688 Z M 28.472656 32.457031 " fill-opacity="1" fill-rule="nonzero"/><path fill="#ffffff" d="M 35.902344 27.453125 L 33.804688 26.238281 C 33.226562 25.90625 32.480469 26.101562 32.144531 26.679688 C 31.8125 27.257812 32.011719 28.003906 32.589844 28.339844 L 34.691406 29.550781 C 34.882812 29.660156 35.089844 29.714844 35.292969 29.714844 C 35.710938 29.714844 36.121094 29.496094 36.347656 29.109375 C 36.679688 28.53125 36.480469 27.785156 35.902344 27.453125 Z M 35.902344 27.453125 " fill-opacity="1" fill-rule="nonzero"/><g clip-path="url(#1a41979219)"><path fill="#ffffff" d="M 37.734375 18.191406 L 35.304688 18.191406 C 34.636719 18.191406 34.09375 18.734375 34.09375 19.402344 C 34.09375 20.070312 34.636719 20.617188 35.304688 20.617188 L 37.734375 20.617188 C 38.402344 20.617188 38.949219 20.070312 38.949219 19.402344 C 38.949219 18.734375 38.402344 18.191406 37.734375 18.191406 Z M 37.734375 18.191406 " fill-opacity="1" fill-rule="nonzero"/></g><path fill="#ffffff" d="M 33.191406 12.738281 C 33.398438 12.738281 33.609375 12.6875 33.796875 12.578125 L 35.898438 11.363281 C 36.476562 11.027344 36.675781 10.285156 36.339844 9.707031 C 36.007812 9.128906 35.261719 8.929688 34.683594 9.261719 L 32.589844 10.46875 C 32.011719 10.804688 31.8125 11.546875 32.144531 12.125 C 32.371094 12.519531 32.777344 12.738281 33.191406 12.738281 Z M 33.191406 12.738281 " fill-opacity="1" fill-rule="nonzero"/><path fill="#ffffff" d="M 26.816406 6.800781 C 27.007812 6.910156 27.214844 6.960938 27.417969 6.960938 C 27.835938 6.960938 28.246094 6.746094 28.472656 6.359375 L 29.6875 4.257812 C 30.019531 3.679688 29.820312 2.933594 29.242188 2.601562 C 28.664062 2.265625 27.921875 2.464844 27.585938 3.042969 L 26.371094 5.144531 C 26.039062 5.722656 26.238281 6.46875 26.816406 6.800781 Z M 26.816406 6.800781 " fill-opacity="1" fill-rule="nonzero"/></svg>