<svg xmlns="http://www.w3.org/2000/svg" xmlns:xlink="http://www.w3.org/1999/xlink" width="133" zoomAndPan="magnify" viewBox="0 0 99.75 86.249997" height="115" preserveAspectRatio="xMidYMid meet" version="1.0"><defs><g/><clipPath id="e68618fc48"><path d="M 3.164062 0 L 99 0 L 99 84 L 3.164062 84 Z M 3.164062 0 " clip-rule="nonzero"/></clipPath></defs><g clip-path="url(#e68618fc48)"><path fill="#02bad6" d="M 95.3125 24.054688 L 57.492188 2.445312 C 56.496094 1.886719 55.445312 1.460938 54.339844 1.175781 C 53.234375 0.886719 52.109375 0.742188 50.96875 0.742188 C 49.824219 0.742188 48.699219 0.886719 47.59375 1.175781 C 46.488281 1.460938 45.4375 1.886719 44.441406 2.445312 L 6.621094 24.054688 C 6.097656 24.355469 5.621094 24.71875 5.191406 25.144531 C 4.761719 25.570312 4.398438 26.046875 4.09375 26.566406 C 3.789062 27.089844 3.558594 27.644531 3.402344 28.226562 C 3.246094 28.8125 3.167969 29.40625 3.164062 30.007812 L 3.164062 54.679688 C 3.167969 55.285156 3.246094 55.878906 3.402344 56.460938 C 3.5625 57.046875 3.792969 57.597656 4.09375 58.121094 C 4.398438 58.644531 4.765625 59.117188 5.191406 59.542969 C 5.621094 59.96875 6.097656 60.332031 6.621094 60.632812 L 44.441406 82.246094 C 45.433594 82.816406 46.484375 83.246094 47.589844 83.539062 C 48.695312 83.832031 49.824219 83.980469 50.96875 83.980469 C 52.113281 83.980469 53.238281 83.832031 54.34375 83.539062 C 55.449219 83.246094 56.5 82.816406 57.492188 82.246094 L 95.3125 60.636719 C 95.839844 60.335938 96.316406 59.972656 96.742188 59.546875 C 97.171875 59.117188 97.535156 58.644531 97.839844 58.121094 C 98.144531 57.597656 98.375 57.046875 98.53125 56.460938 C 98.6875 55.878906 98.765625 55.285156 98.769531 54.679688 L 98.769531 30.007812 C 98.765625 29.40625 98.6875 28.8125 98.53125 28.226562 C 98.375 27.644531 98.144531 27.089844 97.839844 26.566406 C 97.535156 26.046875 97.171875 25.570312 96.742188 25.144531 C 96.3125 24.71875 95.835938 24.355469 95.3125 24.054688 Z M 61.761719 19.214844 L 61.761719 21.929688 L 57.492188 19.4375 C 55.945312 18.546875 54.285156 18 52.507812 17.804688 L 52.507812 10.117188 C 53.726562 10.296875 54.871094 10.695312 55.9375 11.308594 L 62.398438 15.074219 C 61.976562 16.421875 61.765625 17.804688 61.761719 19.214844 Z M 49.425781 17.804688 C 47.648438 18 45.988281 18.546875 44.441406 19.4375 L 20.128906 33.621094 L 13.9375 30.007812 L 45.996094 11.308594 C 47.0625 10.695312 48.207031 10.296875 49.425781 10.117188 Z M 45.996094 22.101562 C 46.753906 21.667969 47.554688 21.339844 48.394531 21.117188 C 49.238281 20.894531 50.09375 20.78125 50.96875 20.78125 C 51.839844 20.78125 52.695312 20.894531 53.539062 21.117188 C 54.382812 21.339844 55.179688 21.667969 55.9375 22.101562 L 78.746094 35.40625 L 55.9375 48.710938 C 55.179688 49.144531 54.382812 49.472656 53.539062 49.695312 C 52.695312 49.917969 51.839844 50.03125 50.96875 50.03125 C 50.09375 50.03125 49.238281 49.917969 48.394531 49.695312 C 47.554688 49.472656 46.753906 49.144531 45.996094 48.710938 L 23.1875 35.40625 Z M 81.804688 33.621094 L 75.636719 30.023438 L 75.636719 24.347656 C 75.644531 23.851562 75.679688 23.359375 75.75 22.867188 L 87.996094 30.007812 Z M 72.554688 24.347656 L 72.554688 28.222656 L 64.84375 23.726562 L 64.84375 19.214844 C 64.847656 17.847656 65.09375 16.53125 65.589844 15.257812 C 66.085938 13.984375 66.792969 12.84375 67.714844 11.835938 L 75.234375 16.132812 C 74.363281 17.324219 73.699219 18.625 73.242188 20.027344 C 72.78125 21.429688 72.554688 22.871094 72.554688 24.347656 Z M 6.25 54.679688 L 6.25 35.714844 C 6.375 35.796875 6.492188 35.886719 6.621094 35.960938 L 10.875 38.394531 L 10.875 59.519531 L 8.152344 57.960938 C 7.5625 57.621094 7.101562 57.160156 6.761719 56.574219 C 6.421875 55.988281 6.25 55.359375 6.25 54.679688 Z M 41.714844 77.136719 L 13.960938 61.277344 L 13.960938 40.15625 L 41.714844 56.015625 Z M 45.972656 79.570312 L 44.800781 78.898438 L 44.800781 57.746094 C 45.746094 58.257812 46.742188 58.648438 47.785156 58.910156 C 48.828125 59.175781 49.890625 59.308594 50.96875 59.308594 C 52.042969 59.308594 53.105469 59.175781 54.148438 58.910156 C 55.191406 58.648438 56.1875 58.257812 57.136719 57.746094 L 57.136719 78.898438 L 55.964844 79.570312 C 55.199219 79.996094 54.394531 80.320312 53.546875 80.539062 C 52.703125 80.761719 51.839844 80.871094 50.96875 80.871094 C 50.09375 80.871094 49.230469 80.761719 48.386719 80.539062 C 47.539062 80.320312 46.734375 79.996094 45.972656 79.570312 Z M 60.21875 56.015625 L 87.972656 40.15625 L 87.972656 61.28125 L 60.21875 77.136719 Z M 93.78125 57.960938 L 91.058594 59.515625 L 91.058594 38.390625 L 95.3125 35.960938 C 95.445312 35.886719 95.5625 35.796875 95.683594 35.714844 L 95.683594 54.679688 C 95.683594 55.359375 95.511719 55.988281 95.171875 56.574219 C 94.832031 57.160156 94.371094 57.621094 93.78125 57.960938 Z M 93.78125 33.289062 L 55.964844 54.898438 C 55.199219 55.324219 54.394531 55.648438 53.546875 55.867188 C 52.703125 56.085938 51.839844 56.199219 50.96875 56.199219 C 50.09375 56.199219 49.230469 56.085938 48.386719 55.867188 C 47.539062 55.648438 46.734375 55.324219 45.972656 54.898438 L 8.152344 33.285156 C 7.5625 32.949219 7.101562 32.488281 6.761719 31.902344 C 6.421875 31.316406 6.25 30.683594 6.25 30.007812 C 6.25 29.332031 6.421875 28.699219 6.761719 28.113281 C 7.101562 27.527344 7.5625 27.066406 8.152344 26.730469 L 45.972656 5.121094 C 46.730469 4.6875 47.535156 4.355469 48.382812 4.132812 C 49.230469 3.90625 50.089844 3.792969 50.96875 3.792969 C 51.84375 3.792969 52.703125 3.90625 53.550781 4.132812 C 54.398438 4.355469 55.203125 4.6875 55.964844 5.121094 L 65 10.285156 C 64.488281 10.890625 64.03125 11.539062 63.632812 12.226562 L 57.492188 8.644531 C 56.496094 8.078125 55.449219 7.648438 54.34375 7.351562 C 53.234375 7.058594 52.109375 6.914062 50.96875 6.914062 C 49.824219 6.914062 48.699219 7.058594 47.59375 7.351562 C 46.484375 7.648438 45.4375 8.078125 44.441406 8.644531 L 10.105469 28.675781 C 9.988281 28.746094 9.882812 28.828125 9.789062 28.921875 C 9.691406 29.019531 9.613281 29.125 9.542969 29.242188 C 9.476562 29.359375 9.425781 29.480469 9.390625 29.613281 C 9.355469 29.742188 9.339844 29.875 9.339844 30.007812 C 9.339844 30.144531 9.355469 30.277344 9.390625 30.40625 C 9.425781 30.535156 9.476562 30.660156 9.542969 30.777344 C 9.613281 30.894531 9.691406 31 9.789062 31.097656 C 9.882812 31.191406 9.988281 31.273438 10.105469 31.339844 L 44.441406 51.375 C 45.433594 51.949219 46.480469 52.390625 47.585938 52.6875 C 48.695312 52.988281 49.820312 53.136719 50.96875 53.136719 C 52.113281 53.136719 53.238281 52.988281 54.347656 52.6875 C 55.453125 52.390625 56.5 51.949219 57.492188 51.375 L 91.828125 31.339844 C 91.945312 31.273438 92.050781 31.191406 92.148438 31.097656 C 92.242188 31 92.324219 30.894531 92.390625 30.777344 C 92.457031 30.660156 92.507812 30.535156 92.542969 30.40625 C 92.578125 30.277344 92.59375 30.144531 92.59375 30.007812 C 92.59375 29.875 92.578125 29.742188 92.542969 29.613281 C 92.507812 29.480469 92.457031 29.359375 92.390625 29.242188 C 92.324219 29.125 92.242188 29.019531 92.148438 28.921875 C 92.050781 28.828125 91.945312 28.746094 91.828125 28.675781 L 76.628906 19.8125 C 76.976562 19.046875 77.410156 18.335938 77.921875 17.671875 L 93.78125 26.734375 C 94.371094 27.070312 94.835938 27.53125 95.175781 28.117188 C 95.515625 28.703125 95.683594 29.335938 95.683594 30.011719 C 95.683594 30.6875 95.515625 31.320312 95.175781 31.90625 C 94.835938 32.492188 94.371094 32.953125 93.78125 33.289062 Z M 93.78125 33.289062 " fill-opacity="1" fill-rule="nonzero"/></g><path fill="#02bad6" d="M 49.425781 37.71875 L 49.425781 34.636719 L 47.574219 34.636719 C 46.03125 34.636719 44.621094 34.210938 43.335938 33.351562 C 41.539062 32.152344 39.558594 31.550781 37.398438 31.550781 C 36.109375 31.546875 34.867188 31.792969 33.675781 32.285156 C 32.484375 32.78125 31.433594 33.484375 30.523438 34.398438 L 29.835938 35.085938 L 32.015625 37.265625 L 32.707031 36.578125 C 33.304688 36.027344 33.972656 35.589844 34.71875 35.265625 C 35.464844 34.941406 36.242188 34.75 37.054688 34.691406 C 37.867188 34.628906 38.664062 34.707031 39.449219 34.917969 C 40.234375 35.125 40.964844 35.460938 41.636719 35.917969 C 43.433594 37.117188 45.414062 37.71875 47.574219 37.71875 Z M 49.425781 37.71875 " fill-opacity="1" fill-rule="nonzero"/><path fill="#02bad6" d="M 45.035156 30.410156 C 45.632812 29.859375 46.304688 29.421875 47.050781 29.097656 C 47.796875 28.777344 48.574219 28.582031 49.386719 28.523438 C 50.195312 28.464844 50.996094 28.539062 51.78125 28.75 C 52.566406 28.960938 53.292969 29.292969 53.964844 29.75 C 55.765625 30.953125 57.746094 31.550781 59.910156 31.550781 L 61.761719 31.550781 L 61.761719 28.46875 L 59.910156 28.46875 C 58.367188 28.46875 56.957031 28.042969 55.671875 27.183594 C 53.875 25.984375 51.894531 25.382812 49.734375 25.382812 C 48.445312 25.378906 47.203125 25.625 46.011719 26.117188 C 44.820312 26.613281 43.769531 27.316406 42.859375 28.230469 L 42.171875 28.917969 L 44.351562 31.097656 Z M 45.035156 30.410156 " fill-opacity="1" fill-rule="nonzero"/><path fill="#02bad6" d="M 55.507812 37.976562 C 54.226562 38.835938 52.816406 39.261719 51.277344 39.261719 L 49.425781 39.261719 L 49.425781 42.34375 L 51.277344 42.34375 C 53.441406 42.347656 55.421875 41.746094 57.222656 40.542969 C 58.503906 39.6875 59.914062 39.261719 61.453125 39.261719 C 62.332031 39.257812 63.179688 39.425781 63.996094 39.761719 C 64.808594 40.101562 65.523438 40.582031 66.144531 41.207031 L 66.832031 41.894531 L 69.015625 39.710938 L 68.328125 39.023438 C 67.417969 38.109375 66.367188 37.40625 65.175781 36.914062 C 63.984375 36.417969 62.742188 36.171875 61.453125 36.175781 C 59.289062 36.175781 57.308594 36.777344 55.507812 37.976562 Z M 55.507812 37.976562 " fill-opacity="1" fill-rule="nonzero"/><g fill="#02bad6" fill-opacity="1"><g transform="translate(11.031126, 60.543862)"><g><path d="M 0.703125 -0.46875 C 0.703125 -0.625 0.742188 -0.753906 0.828125 -0.859375 C 0.921875 -0.960938 1.0625 -1.015625 1.25 -1.015625 C 1.4375 -1.015625 1.578125 -0.960938 1.671875 -0.859375 C 1.765625 -0.753906 1.8125 -0.625 1.8125 -0.46875 C 1.8125 -0.320312 1.765625 -0.195312 1.671875 -0.09375 C 1.578125 0 1.4375 0.046875 1.25 0.046875 C 1.0625 0.046875 0.921875 0 0.828125 -0.09375 C 0.742188 -0.195312 0.703125 -0.320312 0.703125 -0.46875 Z M 0.703125 -0.46875 "/></g></g></g></svg>