<svg xmlns="http://www.w3.org/2000/svg" xmlns:xlink="http://www.w3.org/1999/xlink" width="308" zoomAndPan="magnify" viewBox="0 0 230.87999 231" height="308" preserveAspectRatio="xMidYMid meet" version="1.0"><defs><g/></defs><path fill="#02bad6" d="M 11.804688 218.503906 C 0.34375 207.042969 0.339844 188.488281 11.804688 177.023438 L 86.535156 102.296875 C 88.25 100.582031 91.027344 100.582031 92.742188 102.296875 L 128.011719 137.570312 C 129.726562 139.28125 129.726562 142.0625 128.011719 143.777344 L 53.285156 218.503906 C 41.824219 229.964844 23.269531 229.96875 11.804688 218.503906 Z M 89.636719 111.605469 L 18.011719 183.230469 C 9.980469 191.261719 9.976562 204.265625 18.011719 212.296875 C 26.042969 220.328125 39.042969 220.332031 47.078125 212.296875 L 118.703125 140.671875 Z M 89.636719 111.605469 " fill-opacity="1" fill-rule="nonzero"/><path fill="#02bad6" d="M 107.113281 158.46875 L 71.839844 123.195312 C 70.128906 121.480469 70.128906 118.703125 71.839844 116.988281 C 73.554688 115.273438 76.332031 115.273438 78.046875 116.988281 L 113.320312 152.261719 C 115.035156 153.976562 115.035156 156.753906 113.320312 158.46875 C 111.605469 160.179688 108.828125 160.179688 107.113281 158.46875 Z M 107.113281 158.46875 " fill-opacity="1" fill-rule="nonzero"/><path fill="#02bad6" d="M 91.597656 173.984375 L 56.324219 138.710938 C 54.613281 136.996094 54.613281 134.21875 56.324219 132.503906 C 58.039062 130.792969 60.816406 130.792969 62.53125 132.503906 L 97.804688 167.777344 C 99.519531 169.492188 99.519531 172.269531 97.804688 173.984375 C 96.089844 175.699219 93.3125 175.699219 91.597656 173.984375 Z M 91.597656 173.984375 " fill-opacity="1" fill-rule="nonzero"/><path fill="#02bad6" d="M 113.96875 135.9375 L 94.371094 116.339844 C 92.660156 114.628906 92.660156 111.847656 94.371094 110.132812 L 167.890625 36.617188 L 171.480469 25.84375 C 171.773438 24.964844 172.339844 24.199219 173.09375 23.660156 L 200.527344 4.0625 C 202.273438 2.816406 204.664062 3.015625 206.183594 4.53125 L 225.777344 24.128906 C 227.292969 25.644531 227.492188 28.035156 226.246094 29.78125 L 206.648438 57.214844 C 206.109375 57.96875 205.347656 58.535156 204.464844 58.828125 L 193.691406 62.417969 L 120.175781 135.9375 C 118.464844 137.648438 115.6875 137.652344 113.96875 135.9375 Z M 103.683594 113.238281 L 117.070312 126.625 L 188.21875 55.480469 C 188.699219 55 189.285156 54.636719 189.933594 54.421875 L 200.335938 50.953125 L 216.941406 27.707031 L 202.605469 13.367188 L 179.355469 29.972656 L 175.886719 40.375 C 175.671875 41.023438 175.308594 41.609375 174.828125 42.09375 Z M 103.683594 113.238281 " fill-opacity="1" fill-rule="nonzero"/><path fill="#02bad6" d="M 162.570312 216.019531 C 152.082031 205.53125 148.75 189.675781 153.949219 175.921875 L 113.96875 135.9375 C 112.253906 134.222656 112.253906 131.445312 113.96875 129.730469 C 115.679688 128.019531 118.460938 128.019531 120.175781 129.730469 L 161.707031 171.265625 C 163.316406 172.894531 163.753906 175.363281 162.820312 177.429688 C 157.917969 188.328125 160.3125 201.347656 168.777344 209.8125 C 175.886719 216.925781 186.085938 219.738281 195.628906 217.601562 L 182.242188 204.214844 C 180.527344 202.503906 180.527344 199.722656 182.242188 198.011719 L 197.980469 182.269531 C 199.695312 180.558594 202.472656 180.558594 204.1875 182.269531 L 217.574219 195.65625 C 219.703125 186.113281 216.894531 175.914062 209.785156 168.808594 C 201.316406 160.339844 188.296875 157.949219 177.390625 162.855469 C 175.332031 163.785156 172.867188 163.34375 171.257812 161.757812 L 129.703125 120.203125 C 127.988281 118.488281 127.988281 115.710938 129.703125 113.996094 C 131.417969 112.285156 134.195312 112.285156 135.910156 113.996094 L 175.894531 153.980469 C 189.652344 148.78125 205.503906 152.109375 215.992188 162.601562 C 227.285156 173.894531 230.25 191.171875 223.371094 205.589844 C 222.070312 208.3125 218.453125 208.949219 216.304688 206.800781 L 201.082031 191.582031 L 191.550781 201.113281 L 206.773438 216.335938 C 208.910156 218.472656 208.296875 222.09375 205.5625 223.398438 C 191.082031 230.3125 173.820312 227.269531 162.570312 216.019531 Z M 162.570312 216.019531 " fill-opacity="1" fill-rule="nonzero"/><path fill="#02bad6" d="M 94.371094 116.339844 L 54.386719 76.359375 C 40.625 81.554688 24.777344 78.226562 14.289062 67.738281 C 2.992188 56.441406 0.0273438 39.164062 6.910156 24.75 C 8.210938 22.019531 11.832031 21.394531 13.972656 23.535156 L 29.195312 38.757812 L 38.730469 29.226562 L 23.507812 14.003906 C 21.367188 11.867188 21.984375 8.246094 24.71875 6.9375 C 39.140625 0.0585938 56.414062 3.023438 67.707031 14.316406 C 78.199219 24.808594 81.53125 40.664062 76.328125 54.417969 L 116.3125 94.402344 C 118.027344 96.113281 118.027344 98.894531 116.3125 100.605469 C 114.597656 102.320312 111.820312 102.320312 110.105469 100.605469 L 68.570312 59.074219 C 66.964844 57.441406 66.523438 54.972656 67.457031 52.910156 C 72.363281 42.011719 69.972656 28.992188 61.503906 20.523438 C 54.394531 13.417969 44.195312 10.605469 34.652344 12.738281 L 48.039062 26.121094 C 49.75 27.835938 49.753906 30.617188 48.039062 32.328125 L 32.300781 48.070312 C 31.476562 48.890625 30.359375 49.355469 29.195312 49.355469 C 28.03125 49.355469 26.914062 48.890625 26.09375 48.070312 L 12.707031 34.679688 C 10.574219 44.222656 13.382812 54.421875 20.496094 61.53125 C 28.960938 70 41.980469 72.390625 52.890625 67.484375 C 54.945312 66.554688 57.414062 66.992188 59.023438 68.582031 L 100.578125 110.136719 C 102.292969 111.847656 102.292969 114.628906 100.578125 116.34375 C 98.863281 118.054688 96.085938 118.054688 94.371094 116.339844 Z M 94.371094 116.339844 " fill-opacity="1" fill-rule="nonzero"/><g fill="#02bad6" fill-opacity="1"><g transform="translate(57.985188, 138.996525)"><g><path d="M 2.953125 -1.984375 C 2.953125 -2.640625 3.144531 -3.1875 3.53125 -3.625 C 3.925781 -4.0625 4.507812 -4.28125 5.28125 -4.28125 C 6.0625 -4.28125 6.65625 -4.0625 7.0625 -3.625 C 7.46875 -3.1875 7.671875 -2.640625 7.671875 -1.984375 C 7.671875 -1.359375 7.46875 -0.832031 7.0625 -0.40625 C 6.65625 0.0078125 6.0625 0.21875 5.28125 0.21875 C 4.507812 0.21875 3.925781 0.0078125 3.53125 -0.40625 C 3.144531 -0.832031 2.953125 -1.359375 2.953125 -1.984375 Z M 2.953125 -1.984375 "/></g></g></g></svg>