<svg xmlns="http://www.w3.org/2000/svg" xmlns:xlink="http://www.w3.org/1999/xlink" width="242" zoomAndPan="magnify" viewBox="0 0 181.5 231" height="308" preserveAspectRatio="xMidYMid meet" version="1.0"><defs><g/><clipPath id="4686c991da"><path d="M 6.097656 0.316406 L 180.367188 0.316406 L 180.367188 229.933594 L 6.097656 229.933594 Z M 6.097656 0.316406 " clip-rule="nonzero"/></clipPath></defs><g clip-path="url(#4686c991da)"><path fill="#02bad6" d="M 96.820312 2.296875 C 95.082031 0.359375 91.734375 0.359375 89.996094 2.296875 C 86.578125 6.109375 6.277344 96.132812 6.277344 142.941406 C 6.277344 190.988281 45.363281 230.074219 93.410156 230.074219 C 141.457031 230.074219 180.542969 190.988281 180.542969 142.941406 C 180.542969 96.132812 100.238281 6.109375 96.820312 2.296875 Z M 93.410156 220.902344 C 50.421875 220.902344 15.449219 185.929688 15.449219 142.941406 C 15.449219 104.785156 77.964844 30.171875 93.410156 12.324219 C 108.855469 30.167969 171.371094 104.769531 171.371094 142.941406 C 171.371094 185.929688 136.398438 220.902344 93.410156 220.902344 Z M 93.410156 220.902344 " fill-opacity="1" fill-rule="nonzero"/></g><path fill="#02bad6" d="M 93.410156 184.214844 C 70.652344 184.214844 52.136719 165.703125 52.136719 142.941406 C 52.136719 140.40625 50.082031 138.355469 47.550781 138.355469 C 45.019531 138.355469 42.964844 140.40625 42.964844 142.941406 C 42.964844 170.753906 65.59375 193.386719 93.410156 193.386719 C 95.941406 193.386719 97.996094 191.335938 97.996094 188.800781 C 97.996094 186.265625 95.941406 184.214844 93.410156 184.214844 Z M 93.410156 184.214844 " fill-opacity="1" fill-rule="nonzero"/><g fill="#02bad6" fill-opacity="1"><g transform="translate(16.722292, 188.619304)"><g><path d="M 2.953125 -1.984375 C 2.953125 -2.640625 3.144531 -3.1875 3.53125 -3.625 C 3.914062 -4.0625 4.492188 -4.28125 5.265625 -4.28125 C 6.046875 -4.28125 6.640625 -4.0625 7.046875 -3.625 C 7.453125 -3.1875 7.65625 -2.640625 7.65625 -1.984375 C 7.65625 -1.359375 7.453125 -0.832031 7.046875 -0.40625 C 6.640625 0.0078125 6.046875 0.21875 5.265625 0.21875 C 4.492188 0.21875 3.914062 0.0078125 3.53125 -0.40625 C 3.144531 -0.832031 2.953125 -1.359375 2.953125 -1.984375 Z M 2.953125 -1.984375 "/></g></g></g></svg>