<svg xmlns="http://www.w3.org/2000/svg" xmlns:xlink="http://www.w3.org/1999/xlink" width="118" zoomAndPan="magnify" viewBox="0 0 88.5 86.249997" height="115" preserveAspectRatio="xMidYMid meet" version="1.0"><defs><clipPath id="d7e9dd2593"><path d="M 0.132812 34.523438 L 87.871094 34.523438 L 87.871094 85 L 0.132812 85 Z M 0.132812 34.523438 " clip-rule="nonzero"/></clipPath><clipPath id="095b75c8a8"><path d="M 0.132812 0 L 87.835938 0 L 87.835938 45.355469 L 0.132812 45.355469 Z M 0.132812 0 " clip-rule="nonzero"/></clipPath></defs><g clip-path="url(#d7e9dd2593)"><path fill="#02bad6" d="M 79.082031 60.644531 C 74.421875 59.015625 67.984375 57.824219 59.992188 57.121094 L 59.992188 40.027344 C 59.992188 38.925781 60.902344 37.996094 62.023438 37.996094 C 63.148438 37.996094 64.042969 38.925781 64.042969 40.027344 L 64.042969 43.640625 C 64.042969 44.605469 64.8125 45.375 65.777344 45.375 C 66.742188 45.375 67.511719 44.605469 67.511719 43.640625 L 67.511719 40.027344 C 67.53125 36.996094 65.058594 34.523438 62.023438 34.523438 C 58.992188 34.523438 56.519531 36.996094 56.519531 40.027344 L 56.519531 45.289062 L 47.210938 45.289062 L 47.210938 40.027344 C 47.210938 38.925781 48.121094 37.996094 49.246094 37.996094 C 50.367188 37.996094 51.277344 38.90625 51.277344 40.027344 L 51.277344 41.957031 C 51.277344 42.921875 52.050781 43.691406 53.011719 43.691406 C 53.976562 43.691406 54.75 42.921875 54.75 41.957031 L 54.75 40.027344 C 54.75 36.996094 52.277344 34.523438 49.246094 34.523438 C 46.210938 34.523438 43.738281 36.996094 43.738281 40.027344 L 43.738281 67.625 C 43.722656 68.585938 44.492188 69.359375 45.476562 69.359375 C 46.4375 69.359375 47.210938 68.585938 47.210938 67.625 L 47.210938 65.695312 L 56.519531 65.695312 L 56.519531 69.308594 C 56.519531 70.269531 57.292969 71.042969 58.253906 71.042969 C 59.21875 71.042969 59.992188 70.269531 59.992188 69.308594 L 59.992188 60.609375 C 67.476562 61.292969 73.667969 62.433594 77.945312 63.941406 C 82.011719 65.363281 84.359375 67.132812 84.359375 68.78125 C 84.359375 69.480469 84.359375 70.9375 79.75 71.917969 C 76.066406 72.707031 70.511719 72.9375 64.078125 73.214844 C 62.585938 73.285156 61.027344 73.339844 59.414062 73.425781 C 55.574219 73.601562 52.050781 75.265625 49.472656 78.089844 C 47.578125 80.175781 44.878906 81.367188 42.054688 81.367188 L 42.003906 81.367188 C 30.203125 81.367188 20.210938 80.140625 13.09375 77.792969 C 7.097656 75.828125 3.660156 73.199219 3.660156 70.605469 C 3.660156 66.011719 14.566406 60.875 35.429688 59.996094 C 36.394531 59.960938 37.128906 59.136719 37.09375 58.191406 C 37.058594 57.226562 36.234375 56.472656 35.289062 56.527344 C 13.601562 57.4375 0.15625 62.835938 0.15625 70.605469 C 0.15625 73.621094 2.207031 77.878906 11.988281 81.089844 C 19.457031 83.542969 29.820312 84.839844 41.984375 84.839844 L 42.039062 84.839844 C 45.824219 84.839844 49.472656 83.226562 52.03125 80.421875 C 53.976562 78.28125 56.660156 77.019531 59.554688 76.898438 C 61.164062 76.828125 62.707031 76.757812 64.199219 76.6875 C 71.070312 76.390625 76.488281 76.160156 80.449219 75.320312 C 82.273438 74.933594 87.8125 73.742188 87.8125 68.78125 C 87.8125 65.398438 84.867188 62.664062 79.082031 60.644531 Z M 56.503906 62.207031 L 47.191406 62.207031 L 47.191406 57.226562 L 56.503906 57.226562 Z M 56.503906 53.757812 L 47.191406 53.757812 L 47.191406 48.777344 L 56.503906 48.777344 Z M 56.503906 53.757812 " fill-opacity="1" fill-rule="nonzero"/></g><g clip-path="url(#095b75c8a8)"><path fill="#02bad6" d="M 87.15625 42.632812 C 87.820312 43.296875 87.820312 44.375 87.15625 45.050781 C 86.496094 45.714844 85.414062 45.714844 84.738281 45.050781 L 43.984375 4.285156 L 23.128906 25.140625 C 22.464844 25.804688 21.386719 25.804688 20.710938 25.140625 C 20.339844 24.773438 20.179688 24.269531 20.21875 23.777344 L 20.292969 13.300781 C 20.292969 12.675781 20.035156 12.097656 19.617188 11.679688 C 19.199219 11.261719 18.621094 10.992188 17.984375 10.992188 C 17.355469 10.992188 16.777344 11.261719 16.359375 11.679688 C 15.945312 12.097656 15.6875 12.675781 15.6875 13.300781 L 15.671875 13.300781 L 15.734375 31.8125 L 15.746094 31.8125 C 15.746094 32.289062 15.550781 32.722656 15.230469 33.039062 L 3.21875 45.050781 C 2.554688 45.714844 1.476562 45.714844 0.8125 45.050781 C 0.148438 44.375 0.148438 43.296875 0.8125 42.632812 L 12.332031 31.113281 L 12.269531 13.300781 C 12.269531 11.730469 12.910156 10.304688 13.941406 9.261719 C 14.984375 8.230469 16.410156 7.589844 17.984375 7.589844 C 19.554688 7.589844 20.992188 8.230469 22.023438 9.261719 C 23.054688 10.304688 23.707031 11.730469 23.707031 13.300781 L 23.707031 13.3125 L 23.695312 13.3125 L 23.644531 19.800781 L 42.769531 0.675781 L 42.78125 0.675781 C 43.445312 0 44.523438 0 45.1875 0.675781 Z M 87.15625 42.632812 " fill-opacity="1" fill-rule="nonzero"/><path fill="#02bad6" d="M 87.15625 42.632812 C 87.820312 43.296875 87.820312 44.375 87.15625 45.050781 C 86.496094 45.714844 85.414062 45.714844 84.738281 45.050781 L 43.984375 4.285156 L 23.128906 25.140625 C 22.464844 25.804688 21.386719 25.804688 20.710938 25.140625 C 20.339844 24.773438 20.179688 24.269531 20.21875 23.777344 L 20.292969 13.300781 C 20.292969 12.675781 20.035156 12.097656 19.617188 11.679688 C 19.199219 11.261719 18.621094 10.992188 17.984375 10.992188 C 17.355469 10.992188 16.777344 11.261719 16.359375 11.679688 C 15.945312 12.097656 15.6875 12.675781 15.6875 13.300781 L 15.671875 13.300781 L 15.734375 31.8125 L 15.746094 31.8125 C 15.746094 32.289062 15.550781 32.722656 15.230469 33.039062 L 3.21875 45.050781 C 2.554688 45.714844 1.476562 45.714844 0.8125 45.050781 C 0.148438 44.375 0.148438 43.296875 0.8125 42.632812 L 12.332031 31.113281 L 12.269531 13.300781 C 12.269531 11.730469 12.910156 10.304688 13.941406 9.261719 C 14.984375 8.230469 16.410156 7.589844 17.984375 7.589844 C 19.554688 7.589844 20.992188 8.230469 22.023438 9.261719 C 23.054688 10.304688 23.707031 11.730469 23.707031 13.300781 L 23.707031 13.3125 L 23.695312 13.3125 L 23.644531 19.800781 L 42.769531 0.675781 L 42.78125 0.675781 C 43.445312 0 44.523438 0 45.1875 0.675781 Z M 87.15625 42.632812 " fill-opacity="1" fill-rule="nonzero"/><path fill="#02bad6" d="M 87.15625 42.632812 C 87.820312 43.296875 87.820312 44.375 87.15625 45.050781 C 86.496094 45.714844 85.414062 45.714844 84.738281 45.050781 L 43.984375 4.285156 L 23.128906 25.140625 C 22.464844 25.804688 21.386719 25.804688 20.710938 25.140625 C 20.339844 24.773438 20.179688 24.269531 20.21875 23.777344 L 20.292969 13.300781 C 20.292969 12.675781 20.035156 12.097656 19.617188 11.679688 C 19.199219 11.261719 18.621094 10.992188 17.984375 10.992188 C 17.355469 10.992188 16.777344 11.261719 16.359375 11.679688 C 15.945312 12.097656 15.6875 12.675781 15.6875 13.300781 L 15.671875 13.300781 L 15.734375 31.8125 L 15.746094 31.8125 C 15.746094 32.289062 15.550781 32.722656 15.230469 33.039062 L 3.21875 45.050781 C 2.554688 45.714844 1.476562 45.714844 0.8125 45.050781 C 0.148438 44.375 0.148438 43.296875 0.8125 42.632812 L 12.332031 31.113281 L 12.269531 13.300781 C 12.269531 11.730469 12.910156 10.304688 13.941406 9.261719 C 14.984375 8.230469 16.410156 7.589844 17.984375 7.589844 C 19.554688 7.589844 20.992188 8.230469 22.023438 9.261719 C 23.054688 10.304688 23.707031 11.730469 23.707031 13.300781 L 23.707031 13.3125 L 23.695312 13.3125 L 23.644531 19.800781 L 42.769531 0.675781 L 42.78125 0.675781 C 43.445312 0 44.523438 0 45.1875 0.675781 Z M 87.15625 42.632812 " fill-opacity="1" fill-rule="nonzero"/></g></svg>