<svg width="256" height="256" viewBox="0 0 256 256" fill="none" xmlns="http://www.w3.org/2000/svg">
<path fill-rule="evenodd" clip-rule="evenodd" d="M127.958 62.6102C164.142 62.6102 193.482 91.8915 193.482 128.002C193.482 130.513 193.34 132.992 193.065 135.43C211.247 133.773 231.705 127.402 255.465 114.029C248.487 49.9168 194.052 0 127.958 0C60.1131 0 4.55244 52.6012 0 119.161C41.74 113.671 79.3376 134.626 112.056 158.084C98.8714 142.346 79.4175 128.893 63.6091 115.641C69.4021 85.4409 96.0113 62.6102 127.958 62.6102ZM180.416 244.84C142.874 244.909 113.46 227.617 84.5433 210.62C61.2737 196.941 38.3587 183.471 11.3776 181.428C31.6655 225.435 76.2447 256 127.958 256C146.648 256.003 164.402 252.015 180.416 244.84ZM239.052 192.006C199.956 206.402 169.205 202.563 141.869 191.919C125.046 185.368 109.516 176.24 94.1278 167.192C85.1202 161.899 76.1682 156.638 67.0147 152.057C46.6677 141.874 25.3164 135.063 0.149429 138.753C0.802756 146.601 2.1685 154.249 4.17714 161.632C38.6888 161.372 66.2537 177.575 94.2842 194.049C129.411 214.698 165.354 235.826 218.614 218.548C226.527 210.654 233.412 201.734 239.052 192.006ZM256 135.583C232.786 147.454 212.21 153.215 193.51 154.738C191.526 154.901 189.559 155.015 187.62 155.081C183.269 164.618 176.687 172.928 168.541 179.347C191.689 183.97 218.041 181.789 250.454 166.071C253.481 156.35 255.381 146.137 256 135.583Z" fill="url(#paint0_linear_19_504)"/>
<defs>
<linearGradient id="paint0_linear_19_504" x1="128" y1="0" x2="128" y2="256" gradientUnits="userSpaceOnUse">
<stop offset="0.06" stop-color="#A4F4F8"/>
<stop offset="0.55" stop-color="#02BAD6"/>
<stop offset="0.99" stop-color="#0D78AA"/>
</linearGradient>
</defs>
</svg>
